<?xml version="1.0" encoding="UTF-8" standalone="no"?>
<!-- Created with Inkscape (http://www.inkscape.org/) -->

<svg
   width="100mm"
   height="69.429787mm"
   viewBox="0 0 100 69.429787"
   version="1.1"
   id="svg1"
   xml:space="preserve"
   xmlns:inkscape="http://www.inkscape.org/namespaces/inkscape"
   xmlns:sodipodi="http://sodipodi.sourceforge.net/DTD/sodipodi-0.dtd"
   xmlns="http://www.w3.org/2000/svg"
   xmlns:svg="http://www.w3.org/2000/svg"><sodipodi:namedview
     id="namedview1"
     pagecolor="#ffffff"
     bordercolor="#000000"
     borderopacity="0.25"
     inkscape:showpageshadow="2"
     inkscape:pageopacity="0.0"
     inkscape:pagecheckerboard="0"
     inkscape:deskcolor="#d1d1d1"
     inkscape:document-units="mm" /><defs
     id="defs1" /><g
     inkscape:label="Layer 1"
     inkscape:groupmode="layer"
     id="layer1"
     transform="translate(425.36695,-91.813947)"><g
       id="g16"
       inkscape:export-filename="rabbit.png"
       inkscape:export-xdpi="96"
       inkscape:export-ydpi="96"
       transform="translate(-293.50449,-59.736334)"><ellipse
         style="fill:#000000;stroke-width:0.279038"
         id="path2"
         cx="-81.862465"
         cy="205.98006"
         rx="50"
         ry="15"
         inkscape:export-filename="hole.svg"
         inkscape:export-xdpi="96"
         inkscape:export-ydpi="96" /><g
         id="g15"
         transform="matrix(0.51896987,0,0,0.51896987,-40.063605,106.06549)"><g
           id="g13"
           transform="translate(-17.10847,-0.53128217)"><ellipse
             style="fill:#b3b3b3;stroke-width:0.264583"
             id="path7"
             cx="-64.183395"
             cy="176.36697"
             rx="52.331097"
             ry="43.171577" /><circle
             style="fill:#ffffff;stroke-width:0.264583"
             id="path9"
             cx="-58.555683"
             cy="101.31926"
             r="19.011364"
             transform="matrix(0.67911919,0,0,0.67911919,-48.589224,93.37657)" /><circle
             style="fill:#000000;stroke-width:0.104496"
             id="path10"
             cx="-68.504005"
             cy="104.77704"
             r="6.9626379"
             transform="matrix(0.67911919,0,0,0.67911919,-48.589224,93.37657)" /><circle
             style="fill:#ffffff;stroke-width:0.264583"
             id="path9-0"
             cx="-58.555683"
             cy="101.31926"
             r="19.011364"
             transform="matrix(-0.65597876,0.17576898,-0.17576898,-0.65597876,-64.193359,238.50997)" /><circle
             style="fill:#000000;stroke-width:0.104496"
             id="path10-6"
             cx="-68.504005"
             cy="104.77704"
             r="6.9626379"
             transform="matrix(-0.65597876,0.17576898,-0.17576898,-0.65597876,-64.193359,238.50997)" /><ellipse
             style="fill:#800000;stroke-width:0.267664"
             id="path11"
             cx="-65.907448"
             cy="196.76752"
             rx="31.26943"
             ry="8.2448044" /><rect
             style="fill:#ffffff;stroke-width:0.505306"
             id="rect13"
             width="5.855391"
             height="5.9553528"
             x="-80.78801"
             y="185.98228"
             transform="matrix(0.99936799,-0.03554748,0.04360566,0.99904882,0,0)" /><rect
             style="fill:#ffffff;stroke-width:0.491136"
             id="rect13-0"
             width="5.4474773"
             height="6.047349"
             x="-62.711964"
             y="189.61885"
             transform="matrix(0.9998469,0.01749767,-0.01824381,0.99983357,0,0)" /></g><ellipse
           style="fill:#b3b3b3;stroke-width:0.296748"
           id="path13"
           cx="-146.39709"
           cy="48.824478"
           rx="11.459593"
           ry="30.63838"
           transform="matrix(0.85702848,-0.51526904,0.42141048,0.90687001,0,0)" /><ellipse
           style="fill:#b3b3b3;stroke-width:0.392843"
           id="path14"
           cx="9.5541201"
           cy="137.94398"
           rx="14.36883"
           ry="38.230461"
           transform="matrix(0.96263254,0.27081099,-0.51808754,0.8553276,0,0)" /><ellipse
           style="fill:#b3b3b3;stroke-width:0.284032"
           id="path15"
           cx="-46.471245"
           cy="153.17583"
           rx="7.7800488"
           ry="17.810995"
           transform="matrix(0.87667239,0.48108786,-0.53732105,0.84337778,0,0)" /></g></g></g></svg>
